<?xml version="1.0" standalone="no"?>
<!DOCTYPE svg PUBLIC "-//W3C//DTD SVG 20010904//EN"
 "http://www.w3.org/TR/2001/REC-SVG-20010904/DTD/svg10.dtd">
<svg version="1.0" xmlns="http://www.w3.org/2000/svg"
 width="700.000000pt" height="700.000000pt" viewBox="0 0 700.000000 700.000000"
 preserveAspectRatio="xMidYMid meet">
<metadata>
Created by potrace 1.11, written by Peter Selinger 2001-2013
</metadata>
<g transform="translate(0.000000,700.000000) scale(0.100000,-0.100000)"
fill="#000000" stroke="none">
<path d="M3357 6994 c-1 -1 -52 -4 -113 -8 -60 -4 -119 -8 -130 -10 -10 -2
-46 -7 -79 -10 -160 -18 -446 -83 -635 -145 -982 -324 -1785 -1086 -2163
-2052 -88 -224 -174 -550 -202 -764 -4 -27 -9 -61 -11 -75 -19 -123 -26 -590
-11 -740 11 -99 28 -226 42 -300 3 -14 7 -41 10 -60 3 -19 8 -43 11 -52 3 -9
6 -25 8 -35 14 -65 63 -242 92 -331 340 -1016 1105 -1807 2109 -2180 243 -90
521 -158 770 -187 28 -3 65 -8 83 -10 159 -22 541 -22 727 0 95 11 142 17 160
21 31 7 66 12 115 19 24 4 47 8 51 10 3 2 19 7 35 9 149 28 416 109 587 180
807 335 1453 943 1827 1721 110 229 181 420 237 640 27 107 29 114 44 190 9
50 11 59 24 145 4 25 9 52 10 60 4 21 14 120 24 225 9 100 7 456 -3 550 -6 59
-13 116 -22 185 -27 214 -124 592 -193 755 -5 11 -26 61 -46 110 -56 135 -151
322 -225 443 -25 40 -50 81 -55 90 -6 9 -33 51 -61 92 -44 64 -64 91 -122 165
-4 6 -17 23 -30 39 -88 113 -336 369 -462 477 -471 402 -1069 682 -1670 783
-143 24 -176 28 -334 42 -73 6 -393 13 -399 8z m433 -377 c8 -3 42 -8 75 -11
169 -16 422 -72 615 -136 409 -136 834 -385 1124 -660 130 -123 129 -123 271
-280 229 -254 514 -766 590 -1060 16 -61 19 -74 29 -118 2 -9 9 -37 16 -62 7
-25 14 -56 17 -70 2 -14 13 -56 23 -95 23 -88 38 -165 46 -230 3 -27 9 -81 14
-120 8 -72 6 -554 -3 -591 -3 -12 -8 -45 -12 -75 -67 -570 -321 -1149 -708
-1614 -90 -108 -350 -358 -466 -448 -227 -175 -384 -268 -706 -417 -178 -82
-497 -173 -742 -210 -180 -27 -284 -35 -488 -34 -189 0 -373 14 -510 40 -16 3
-37 6 -45 8 -77 13 -87 40 -55 143 167 546 451 1081 819 1538 154 191 230 272
559 592 157 153 247 298 302 489 34 119 40 167 39 329 -1 180 -33 327 -99 460
-159 319 -466 549 -820 613 -51 9 -560 8 -680 -1 -88 -7 -185 -17 -215 -22 -8
-2 -44 -6 -80 -10 -36 -4 -74 -9 -85 -11 -11 -2 -40 -7 -65 -10 -205 -25 -632
-132 -905 -226 -377 -130 -805 -335 -1105 -529 -72 -46 -87 -52 -115 -45 -31
8 -47 45 -40 95 2 20 7 54 9 76 57 470 250 968 531 1370 194 277 433 525 700
726 62 47 248 170 275 182 8 4 31 17 50 29 68 41 286 147 380 183 233 92 509
166 699 190 30 4 61 8 71 10 9 2 56 6 106 10 49 4 91 9 92 10 7 6 476 -2 492
-8z m-180 -2381 c272 -45 497 -236 584 -497 31 -92 38 -139 37 -249 -1 -209
-95 -403 -270 -558 -103 -92 -286 -276 -370 -372 -40 -47 -79 -89 -85 -95 -6
-5 -23 -26 -37 -45 -15 -19 -35 -44 -45 -55 -11 -11 -32 -38 -48 -60 -17 -22
-33 -42 -36 -45 -13 -10 -214 -299 -262 -375 -55 -88 -51 -82 -109 -180 -50
-83 -195 -367 -228 -445 -13 -30 -34 -77 -46 -105 -12 -27 -39 -95 -60 -150
-20 -55 -41 -109 -45 -120 -5 -11 -28 -78 -51 -150 -44 -139 -59 -165 -94
-165 -27 0 -225 81 -345 141 -127 63 -360 206 -450 276 -325 252 -540 478
-742 778 -69 103 -218 355 -218 369 0 3 -17 42 -39 88 -130 278 -221 589 -256
878 -4 25 -8 58 -10 74 -2 16 2 41 10 55 14 27 87 91 104 91 5 0 11 4 13 8 5
13 217 150 356 231 419 243 909 440 1362 547 70 17 68 16 180 39 112 23 121
24 170 31 25 3 47 7 50 9 3 2 34 6 70 10 36 4 73 9 83 11 10 2 48 6 85 9 37 4
81 9 97 11 17 2 89 6 160 10 72 3 131 7 132 8 6 5 316 -2 353 -8z"/>
</g>
</svg>
